<?xml version="1.0" encoding="UTF-8"?>
<svg version="1.1" xmlns="http://www.w3.org/2000/svg" width="512" height="512">
<path d="M0 0 C158.4 0 316.8 0 480 0 C480 236.05217942 480 236.05217942 460.890625 255.33984375 C446.66585688 268.43047495 430.58534431 272.31300045 411.79997253 272.26069641 C410.25808013 272.26372009 408.71618924 272.26761065 407.17430097 272.27228898 C402.95358785 272.28254994 398.73295985 272.28039201 394.51223981 272.27610838 C389.95383441 272.27363769 385.39544932 272.28265961 380.83705139 272.29014587 C371.91271991 272.30288556 362.98841853 272.30468746 354.06407949 272.30234561 C346.80848176 272.3005614 339.55289316 272.30231431 332.29729652 272.30657005 C330.74734499 272.30746284 330.74734499 272.30746284 329.16608131 272.30837366 C327.06680589 272.30958543 324.96753047 272.31079956 322.86825506 272.31201603 C303.1874258 272.32288886 283.50661369 272.32073035 263.82578347 272.31463119 C245.83163115 272.30946284 227.83753299 272.32071576 209.84339138 272.33972941 C191.35604051 272.35911406 172.86871525 272.36736267 154.38135415 272.36360615 C144.00653413 272.36169499 133.63176019 272.36417339 123.25694847 272.37832069 C114.42423979 272.39024348 105.59160556 272.39162933 96.75889584 272.37953053 C92.25513065 272.37364804 87.75150158 272.37252497 83.24774551 272.38453293 C79.11909617 272.39541255 74.99069622 272.39226377 70.86205844 272.37827124 C69.37423696 272.37563002 67.88639581 272.37797268 66.39859369 272.38600711 C47.61755563 272.48033075 31.76168535 267.28753298 18.01147461 254.27929688 C-42.02648339 194.1485445 0 84.97213533 0 0 Z M84.0625 45.75 C79.74523041 52.55297027 79.69196296 59.02091664 79.69921875 66.8671875 C79.69493362 67.90134796 79.6906485 68.93550842 79.68623352 70.00100708 C79.68050973 72.18116527 79.67997552 74.36134255 79.68432617 76.54150391 C79.68748327 79.8574316 79.66401163 83.17246383 79.63867188 86.48828125 C79.63639824 88.61458222 79.63569568 90.74088556 79.63671875 92.8671875 C79.627509 93.84871796 79.61829926 94.83024841 79.60881042 95.84152222 C79.65183135 102.31817063 80.05583542 109.33042682 84.27494812 114.58908081 C90.75570901 120.51347063 98.62054807 120.30840727 106.8671875 120.30078125 C108.41842819 120.30720894 108.41842819 120.30720894 110.00100708 120.31376648 C112.18116527 120.31949027 114.36134255 120.32002448 116.54150391 120.31567383 C119.8574316 120.31251673 123.17246383 120.33598837 126.48828125 120.36132812 C128.61458222 120.36360176 130.74088556 120.36430432 132.8671875 120.36328125 C134.33948318 120.37709587 134.33948318 120.37709587 135.84152222 120.39118958 C142.31817063 120.34816865 149.33042682 119.94416458 154.58908081 115.72505188 C160.51347063 109.24429099 160.30840727 101.37945193 160.30078125 93.1328125 C160.30720894 91.58157181 160.30720894 91.58157181 160.31376648 89.99899292 C160.31949027 87.81883473 160.32002448 85.63865745 160.31567383 83.45849609 C160.31251673 80.1425684 160.33598837 76.82753617 160.36132812 73.51171875 C160.36360176 71.38541778 160.36430432 69.25911444 160.36328125 67.1328125 C160.372491 66.15128204 160.38170074 65.16975159 160.39118958 64.15847778 C160.34816865 57.68182937 159.94416458 50.66957318 155.72505188 45.41091919 C149.24429099 39.48652937 141.37945193 39.69159273 133.1328125 39.69921875 C132.09865204 39.69493362 131.06449158 39.6906485 129.99899292 39.68623352 C127.81883473 39.68050973 125.63865745 39.67997552 123.45849609 39.68432617 C120.1425684 39.68748327 116.82753617 39.66401163 113.51171875 39.63867188 C111.38541778 39.63639824 109.25911444 39.63569568 107.1328125 39.63671875 C106.15128204 39.627509 105.16975159 39.61829926 104.15847778 39.60881042 C96.99733014 39.65637811 89.17853432 40.15350886 84.0625 45.75 Z M204.0625 45.75 C199.74523041 52.55297027 199.69196296 59.02091664 199.69921875 66.8671875 C199.69493362 67.90134796 199.6906485 68.93550842 199.68623352 70.00100708 C199.68050973 72.18116527 199.67997552 74.36134255 199.68432617 76.54150391 C199.68748327 79.8574316 199.66401163 83.17246383 199.63867188 86.48828125 C199.63639824 88.61458222 199.63569568 90.74088556 199.63671875 92.8671875 C199.627509 93.84871796 199.61829926 94.83024841 199.60881042 95.84152222 C199.65183135 102.31817063 200.05583542 109.33042682 204.27494812 114.58908081 C210.75570901 120.51347063 218.62054807 120.30840727 226.8671875 120.30078125 C228.41842819 120.30720894 228.41842819 120.30720894 230.00100708 120.31376648 C232.18116527 120.31949027 234.36134255 120.32002448 236.54150391 120.31567383 C239.8574316 120.31251673 243.17246383 120.33598837 246.48828125 120.36132812 C248.61458222 120.36360176 250.74088556 120.36430432 252.8671875 120.36328125 C254.33948318 120.37709587 254.33948318 120.37709587 255.84152222 120.39118958 C262.31817063 120.34816865 269.33042682 119.94416458 274.58908081 115.72505188 C280.51347063 109.24429099 280.30840727 101.37945193 280.30078125 93.1328125 C280.30720894 91.58157181 280.30720894 91.58157181 280.31376648 89.99899292 C280.31949027 87.81883473 280.32002448 85.63865745 280.31567383 83.45849609 C280.31251673 80.1425684 280.33598837 76.82753617 280.36132812 73.51171875 C280.36360176 71.38541778 280.36430432 69.25911444 280.36328125 67.1328125 C280.372491 66.15128204 280.38170074 65.16975159 280.39118958 64.15847778 C280.34816865 57.68182937 279.94416458 50.66957318 275.72505188 45.41091919 C269.24429099 39.48652937 261.37945193 39.69159273 253.1328125 39.69921875 C252.09865204 39.69493362 251.06449158 39.6906485 249.99899292 39.68623352 C247.81883473 39.68050973 245.63865745 39.67997552 243.45849609 39.68432617 C240.1425684 39.68748327 236.82753617 39.66401163 233.51171875 39.63867188 C231.38541778 39.63639824 229.25911444 39.63569568 227.1328125 39.63671875 C226.15128204 39.627509 225.16975159 39.61829926 224.15847778 39.60881042 C216.99733014 39.65637811 209.17853432 40.15350886 204.0625 45.75 Z M324.0625 45.75 C319.74523041 52.55297027 319.69196296 59.02091664 319.69921875 66.8671875 C319.69493362 67.90134796 319.6906485 68.93550842 319.68623352 70.00100708 C319.68050973 72.18116527 319.67997552 74.36134255 319.68432617 76.54150391 C319.68748327 79.8574316 319.66401163 83.17246383 319.63867188 86.48828125 C319.63639824 88.61458222 319.63569568 90.74088556 319.63671875 92.8671875 C319.627509 93.84871796 319.61829926 94.83024841 319.60881042 95.84152222 C319.65183135 102.31817063 320.05583542 109.33042682 324.27494812 114.58908081 C330.75570901 120.51347063 338.62054807 120.30840727 346.8671875 120.30078125 C348.41842819 120.30720894 348.41842819 120.30720894 350.00100708 120.31376648 C352.18116527 120.31949027 354.36134255 120.32002448 356.54150391 120.31567383 C359.8574316 120.31251673 363.17246383 120.33598837 366.48828125 120.36132812 C368.61458222 120.36360176 370.74088556 120.36430432 372.8671875 120.36328125 C374.33948318 120.37709587 374.33948318 120.37709587 375.84152222 120.39118958 C382.31817063 120.34816865 389.33042682 119.94416458 394.58908081 115.72505188 C400.51347063 109.24429099 400.30840727 101.37945193 400.30078125 93.1328125 C400.30720894 91.58157181 400.30720894 91.58157181 400.31376648 89.99899292 C400.31949027 87.81883473 400.32002448 85.63865745 400.31567383 83.45849609 C400.31251673 80.1425684 400.33598837 76.82753617 400.36132812 73.51171875 C400.36360176 71.38541778 400.36430432 69.25911444 400.36328125 67.1328125 C400.372491 66.15128204 400.38170074 65.16975159 400.39118958 64.15847778 C400.34816865 57.68182937 399.94416458 50.66957318 395.72505188 45.41091919 C389.24429099 39.48652937 381.37945193 39.69159273 373.1328125 39.69921875 C372.09865204 39.69493362 371.06449158 39.6906485 369.99899292 39.68623352 C367.81883473 39.68050973 365.63865745 39.67997552 363.45849609 39.68432617 C360.1425684 39.68748327 356.82753617 39.66401163 353.51171875 39.63867188 C351.38541778 39.63639824 349.25911444 39.63569568 347.1328125 39.63671875 C346.15128204 39.627509 345.16975159 39.61829926 344.15847778 39.60881042 C336.99733014 39.65637811 329.17853432 40.15350886 324.0625 45.75 Z M84.0625 149.75 C79.74523041 156.55297027 79.69196296 163.02091664 79.69921875 170.8671875 C79.69493362 171.90134796 79.6906485 172.93550842 79.68623352 174.00100708 C79.68050973 176.18116527 79.67997552 178.36134255 79.68432617 180.54150391 C79.68748327 183.8574316 79.66401163 187.17246383 79.63867188 190.48828125 C79.63639824 192.61458222 79.63569568 194.74088556 79.63671875 196.8671875 C79.627509 197.84871796 79.61829926 198.83024841 79.60881042 199.84152222 C79.65183135 206.31817063 80.05583542 213.33042682 84.27494812 218.58908081 C90.75570901 224.51347063 98.62054807 224.30840727 106.8671875 224.30078125 C108.41842819 224.30720894 108.41842819 224.30720894 110.00100708 224.31376648 C112.18116527 224.31949027 114.36134255 224.32002448 116.54150391 224.31567383 C119.8574316 224.31251673 123.17246383 224.33598837 126.48828125 224.36132812 C128.61458222 224.36360176 130.74088556 224.36430432 132.8671875 224.36328125 C134.33948318 224.37709587 134.33948318 224.37709587 135.84152222 224.39118958 C142.31817063 224.34816865 149.33042682 223.94416458 154.58908081 219.72505188 C160.51347063 213.24429099 160.30840727 205.37945193 160.30078125 197.1328125 C160.30720894 195.58157181 160.30720894 195.58157181 160.31376648 193.99899292 C160.31949027 191.81883473 160.32002448 189.63865745 160.31567383 187.45849609 C160.31251673 184.1425684 160.33598837 180.82753617 160.36132812 177.51171875 C160.36360176 175.38541778 160.36430432 173.25911444 160.36328125 171.1328125 C160.372491 170.15128204 160.38170074 169.16975159 160.39118958 168.15847778 C160.34816865 161.68182937 159.94416458 154.66957318 155.72505188 149.41091919 C149.24429099 143.48652937 141.37945193 143.69159273 133.1328125 143.69921875 C132.09865204 143.69493362 131.06449158 143.6906485 129.99899292 143.68623352 C127.81883473 143.68050973 125.63865745 143.67997552 123.45849609 143.68432617 C120.1425684 143.68748327 116.82753617 143.66401163 113.51171875 143.63867188 C111.38541778 143.63639824 109.25911444 143.63569568 107.1328125 143.63671875 C106.15128204 143.627509 105.16975159 143.61829926 104.15847778 143.60881042 C96.99733014 143.65637811 89.17853432 144.15350886 84.0625 149.75 Z M204.0625 149.75 C199.74523041 156.55297027 199.69196296 163.02091664 199.69921875 170.8671875 C199.69493362 171.90134796 199.6906485 172.93550842 199.68623352 174.00100708 C199.68050973 176.18116527 199.67997552 178.36134255 199.68432617 180.54150391 C199.68748327 183.8574316 199.66401163 187.17246383 199.63867188 190.48828125 C199.63639824 192.61458222 199.63569568 194.74088556 199.63671875 196.8671875 C199.627509 197.84871796 199.61829926 198.83024841 199.60881042 199.84152222 C199.65183135 206.31817063 200.05583542 213.33042682 204.27494812 218.58908081 C210.75570901 224.51347063 218.62054807 224.30840727 226.8671875 224.30078125 C228.41842819 224.30720894 228.41842819 224.30720894 230.00100708 224.31376648 C232.18116527 224.31949027 234.36134255 224.32002448 236.54150391 224.31567383 C239.8574316 224.31251673 243.17246383 224.33598837 246.48828125 224.36132812 C248.61458222 224.36360176 250.74088556 224.36430432 252.8671875 224.36328125 C254.33948318 224.37709587 254.33948318 224.37709587 255.84152222 224.39118958 C262.31817063 224.34816865 269.33042682 223.94416458 274.58908081 219.72505188 C280.51347063 213.24429099 280.30840727 205.37945193 280.30078125 197.1328125 C280.30720894 195.58157181 280.30720894 195.58157181 280.31376648 193.99899292 C280.31949027 191.81883473 280.32002448 189.63865745 280.31567383 187.45849609 C280.31251673 184.1425684 280.33598837 180.82753617 280.36132812 177.51171875 C280.36360176 175.38541778 280.36430432 173.25911444 280.36328125 171.1328125 C280.372491 170.15128204 280.38170074 169.16975159 280.39118958 168.15847778 C280.34816865 161.68182937 279.94416458 154.66957318 275.72505188 149.41091919 C269.24429099 143.48652937 261.37945193 143.69159273 253.1328125 143.69921875 C252.09865204 143.69493362 251.06449158 143.6906485 249.99899292 143.68623352 C247.81883473 143.68050973 245.63865745 143.67997552 243.45849609 143.68432617 C240.1425684 143.68748327 236.82753617 143.66401163 233.51171875 143.63867188 C231.38541778 143.63639824 229.25911444 143.63569568 227.1328125 143.63671875 C226.15128204 143.627509 225.16975159 143.61829926 224.15847778 143.60881042 C216.99733014 143.65637811 209.17853432 144.15350886 204.0625 149.75 Z M324.0625 149.75 C319.74523041 156.55297027 319.69196296 163.02091664 319.69921875 170.8671875 C319.69493362 171.90134796 319.6906485 172.93550842 319.68623352 174.00100708 C319.68050973 176.18116527 319.67997552 178.36134255 319.68432617 180.54150391 C319.68748327 183.8574316 319.66401163 187.17246383 319.63867188 190.48828125 C319.63639824 192.61458222 319.63569568 194.74088556 319.63671875 196.8671875 C319.627509 197.84871796 319.61829926 198.83024841 319.60881042 199.84152222 C319.65183135 206.31817063 320.05583542 213.33042682 324.27494812 218.58908081 C330.75570901 224.51347063 338.62054807 224.30840727 346.8671875 224.30078125 C348.41842819 224.30720894 348.41842819 224.30720894 350.00100708 224.31376648 C352.18116527 224.31949027 354.36134255 224.32002448 356.54150391 224.31567383 C359.8574316 224.31251673 363.17246383 224.33598837 366.48828125 224.36132812 C368.61458222 224.36360176 370.74088556 224.36430432 372.8671875 224.36328125 C374.33948318 224.37709587 374.33948318 224.37709587 375.84152222 224.39118958 C382.31817063 224.34816865 389.33042682 223.94416458 394.58908081 219.72505188 C400.51347063 213.24429099 400.30840727 205.37945193 400.30078125 197.1328125 C400.30720894 195.58157181 400.30720894 195.58157181 400.31376648 193.99899292 C400.31949027 191.81883473 400.32002448 189.63865745 400.31567383 187.45849609 C400.31251673 184.1425684 400.33598837 180.82753617 400.36132812 177.51171875 C400.36360176 175.38541778 400.36430432 173.25911444 400.36328125 171.1328125 C400.372491 170.15128204 400.38170074 169.16975159 400.39118958 168.15847778 C400.34816865 161.68182937 399.94416458 154.66957318 395.72505188 149.41091919 C389.24429099 143.48652937 381.37945193 143.69159273 373.1328125 143.69921875 C372.09865204 143.69493362 371.06449158 143.6906485 369.99899292 143.68623352 C367.81883473 143.68050973 365.63865745 143.67997552 363.45849609 143.68432617 C360.1425684 143.68748327 356.82753617 143.66401163 353.51171875 143.63867188 C351.38541778 143.63639824 349.25911444 143.63569568 347.1328125 143.63671875 C346.15128204 143.627509 345.16975159 143.61829926 344.15847778 143.60881042 C336.99733014 143.65637811 329.17853432 144.15350886 324.0625 149.75 Z " fill="#000000" transform="translate(16,208)"/>
<path d="M0 0 C0 26.4 0 52.8 0 80 C21.12 80 42.24 80 64 80 C64 53.6 64 27.2 64 0 C122.08 0 180.16 0 240 0 C240 26.4 240 52.8 240 80 C261.12 80 282.24 80 304 80 C304 53.6 304 27.2 304 0 C356.05217942 0 356.05217942 0 375.33984375 19.109375 C400.90295874 46.8872092 392 83.78954757 392 120 C233.6 120 75.2 120 -88 120 C-88 35.94782058 -88 35.94782058 -68.890625 16.66015625 C-48.66964386 -1.94861153 -27.55864209 0 0 0 Z " fill="#000000" transform="translate(104,64)"/>
<path d="M0 0 C10.56 0 21.12 0 32 0 C32 31.68 32 63.36 32 96 C21.44 96 10.88 96 0 96 C0 64.32 0 32.64 0 0 Z " fill="#000000" transform="translate(360,32)"/>
<path d="M0 0 C10.56 0 21.12 0 32 0 C32 31.68 32 63.36 32 96 C21.44 96 10.88 96 0 96 C0 64.32 0 32.64 0 0 Z " fill="#000000" transform="translate(120,32)"/>
</svg>
